<mxfile host="app.diagrams.net" modified="2024-04-15T09:41:37.283Z" agent="Mozilla/5.0 (Windows NT 10.0; Win64; x64) AppleWebKit/537.36 (KHTML, like Gecko) Chrome/123.0.0.0 Safari/537.36" etag="uwWRg5Jma4qwc4K7EpOp" version="24.2.5" type="device">
  <diagram name="Page-1" id="e7e014a7-5840-1c2e-5031-d8a46d1fe8dd">
    <mxGraphModel dx="1843" dy="817" grid="1" gridSize="10" guides="1" tooltips="1" connect="1" arrows="1" fold="1" page="1" pageScale="1" pageWidth="1169" pageHeight="826" background="none" math="0" shadow="0">
      <root>
        <mxCell id="0" />
        <mxCell id="1" parent="0" />
        <mxCell id="5468L58HA4qk509hSg3y-41" value="Phân tích yêu cầu" style="rounded=1;whiteSpace=wrap;html=1;arcSize=40;fontColor=#000000;fillColor=#ffffc0;strokeColor=#ff0000;" vertex="1" parent="1">
          <mxGeometry x="375" y="135" width="120" height="40" as="geometry" />
        </mxCell>
        <mxCell id="5468L58HA4qk509hSg3y-42" value="" style="edgeStyle=orthogonalEdgeStyle;html=1;verticalAlign=bottom;endArrow=open;endSize=8;strokeColor=#ff0000;rounded=0;fontSize=12;curved=1;" edge="1" source="5468L58HA4qk509hSg3y-41" parent="1" target="5468L58HA4qk509hSg3y-43">
          <mxGeometry relative="1" as="geometry">
            <mxPoint x="465" y="270" as="targetPoint" />
          </mxGeometry>
        </mxCell>
        <mxCell id="5468L58HA4qk509hSg3y-43" value="Xác định mô hình phần mềm" style="rounded=1;whiteSpace=wrap;html=1;arcSize=40;fontColor=#000000;fillColor=#ffffc0;strokeColor=#ff0000;" vertex="1" parent="1">
          <mxGeometry x="715" y="135" width="120" height="40" as="geometry" />
        </mxCell>
        <mxCell id="5468L58HA4qk509hSg3y-44" value="" style="edgeStyle=orthogonalEdgeStyle;html=1;verticalAlign=bottom;endArrow=open;endSize=8;strokeColor=#ff0000;rounded=0;fontSize=12;curved=1;" edge="1" source="5468L58HA4qk509hSg3y-43" parent="1" target="5468L58HA4qk509hSg3y-45">
          <mxGeometry relative="1" as="geometry">
            <mxPoint x="470" y="310" as="targetPoint" />
          </mxGeometry>
        </mxCell>
        <mxCell id="5468L58HA4qk509hSg3y-45" value="Xác định các namespace và một số phương thức cần có" style="rounded=1;whiteSpace=wrap;html=1;arcSize=40;fontColor=#000000;fillColor=#ffffc0;strokeColor=#ff0000;" vertex="1" parent="1">
          <mxGeometry x="700" y="210" width="150" height="70" as="geometry" />
        </mxCell>
        <mxCell id="5468L58HA4qk509hSg3y-46" value="" style="edgeStyle=orthogonalEdgeStyle;html=1;verticalAlign=bottom;endArrow=open;endSize=8;strokeColor=#ff0000;rounded=0;fontSize=12;curved=1;" edge="1" source="5468L58HA4qk509hSg3y-45" parent="1" target="5468L58HA4qk509hSg3y-47">
          <mxGeometry relative="1" as="geometry">
            <mxPoint x="470" y="413" as="targetPoint" />
          </mxGeometry>
        </mxCell>
        <mxCell id="5468L58HA4qk509hSg3y-47" value="Xem công nghệ trong framwork có thể sử dụng" style="rounded=1;whiteSpace=wrap;html=1;arcSize=40;fontColor=#000000;fillColor=#ffffc0;strokeColor=#ff0000;" vertex="1" parent="1">
          <mxGeometry x="465" y="210" width="135" height="70" as="geometry" />
        </mxCell>
        <mxCell id="5468L58HA4qk509hSg3y-48" value="" style="edgeStyle=orthogonalEdgeStyle;html=1;verticalAlign=bottom;endArrow=open;endSize=8;strokeColor=#ff0000;rounded=0;fontSize=12;curved=1;" edge="1" source="5468L58HA4qk509hSg3y-47" parent="1" target="5468L58HA4qk509hSg3y-49">
          <mxGeometry relative="1" as="geometry">
            <mxPoint x="470" y="530" as="targetPoint" />
          </mxGeometry>
        </mxCell>
        <mxCell id="5468L58HA4qk509hSg3y-49" value="Viết code" style="rounded=1;whiteSpace=wrap;html=1;arcSize=40;fontColor=#000000;fillColor=#ffffc0;strokeColor=#ff0000;" vertex="1" parent="1">
          <mxGeometry x="470" y="340" width="120" height="40" as="geometry" />
        </mxCell>
        <mxCell id="5468L58HA4qk509hSg3y-50" value="" style="edgeStyle=orthogonalEdgeStyle;html=1;verticalAlign=bottom;endArrow=open;endSize=8;strokeColor=#ff0000;rounded=0;fontSize=12;curved=1;" edge="1" source="5468L58HA4qk509hSg3y-49" parent="1" target="5468L58HA4qk509hSg3y-51">
          <mxGeometry relative="1" as="geometry">
            <mxPoint x="530" y="440" as="targetPoint" />
          </mxGeometry>
        </mxCell>
        <mxCell id="5468L58HA4qk509hSg3y-51" value="Debug và thảo luận với các thành viên liên quan" style="rounded=1;whiteSpace=wrap;html=1;arcSize=40;fontColor=#000000;fillColor=#ffffc0;strokeColor=#ff0000;" vertex="1" parent="1">
          <mxGeometry x="460" y="406" width="140" height="60" as="geometry" />
        </mxCell>
        <mxCell id="5468L58HA4qk509hSg3y-52" value="" style="edgeStyle=orthogonalEdgeStyle;html=1;verticalAlign=bottom;endArrow=open;endSize=8;strokeColor=#ff0000;rounded=0;fontSize=12;curved=1;" edge="1" source="5468L58HA4qk509hSg3y-51" parent="1" target="5468L58HA4qk509hSg3y-53">
          <mxGeometry relative="1" as="geometry">
            <mxPoint x="520" y="550" as="targetPoint" />
          </mxGeometry>
        </mxCell>
        <mxCell id="5468L58HA4qk509hSg3y-53" value="Hợp logic" style="rhombus;whiteSpace=wrap;html=1;fontColor=#000000;fillColor=#ffffc0;strokeColor=#ff0000;" vertex="1" parent="1">
          <mxGeometry x="489" y="505" width="80" height="40" as="geometry" />
        </mxCell>
        <mxCell id="5468L58HA4qk509hSg3y-55" value="yes" style="edgeStyle=orthogonalEdgeStyle;html=1;align=left;verticalAlign=top;endArrow=open;endSize=8;strokeColor=#ff0000;rounded=0;fontSize=12;curved=1;" edge="1" source="5468L58HA4qk509hSg3y-53" parent="1" target="5468L58HA4qk509hSg3y-56">
          <mxGeometry x="-1" relative="1" as="geometry">
            <mxPoint x="520" y="660" as="targetPoint" />
            <Array as="points" />
          </mxGeometry>
        </mxCell>
        <mxCell id="5468L58HA4qk509hSg3y-56" value="Tối ưu mã nguồn" style="rounded=1;whiteSpace=wrap;html=1;arcSize=40;fontColor=#000000;fillColor=#ffffc0;strokeColor=#ff0000;" vertex="1" parent="1">
          <mxGeometry x="468" y="587" width="120" height="40" as="geometry" />
        </mxCell>
        <mxCell id="5468L58HA4qk509hSg3y-57" value="" style="edgeStyle=orthogonalEdgeStyle;html=1;verticalAlign=bottom;endArrow=open;endSize=8;strokeColor=#ff0000;rounded=0;fontSize=12;curved=1;" edge="1" source="5468L58HA4qk509hSg3y-56" parent="1" target="5468L58HA4qk509hSg3y-58">
          <mxGeometry relative="1" as="geometry">
            <mxPoint x="520" y="770" as="targetPoint" />
          </mxGeometry>
        </mxCell>
        <mxCell id="5468L58HA4qk509hSg3y-58" value="Debug" style="rhombus;whiteSpace=wrap;html=1;fontColor=#000000;fillColor=#ffffc0;strokeColor=#ff0000;" vertex="1" parent="1">
          <mxGeometry x="488" y="660" width="80" height="40" as="geometry" />
        </mxCell>
        <mxCell id="5468L58HA4qk509hSg3y-59" value="lỗi" style="edgeStyle=orthogonalEdgeStyle;html=1;align=left;verticalAlign=bottom;endArrow=open;endSize=8;strokeColor=#ff0000;rounded=0;fontSize=12;curved=1;" edge="1" source="5468L58HA4qk509hSg3y-58" parent="1" target="5468L58HA4qk509hSg3y-56">
          <mxGeometry x="-1" relative="1" as="geometry">
            <mxPoint x="660" y="810" as="targetPoint" />
            <Array as="points">
              <mxPoint x="640" y="680" />
              <mxPoint x="640" y="600" />
            </Array>
          </mxGeometry>
        </mxCell>
        <mxCell id="5468L58HA4qk509hSg3y-60" value="tốt" style="edgeStyle=orthogonalEdgeStyle;html=1;align=left;verticalAlign=top;endArrow=open;endSize=8;strokeColor=#ff0000;rounded=0;fontSize=12;curved=1;" edge="1" source="5468L58HA4qk509hSg3y-58" parent="1" target="5468L58HA4qk509hSg3y-61">
          <mxGeometry x="-1" relative="1" as="geometry">
            <mxPoint x="528" y="760" as="targetPoint" />
          </mxGeometry>
        </mxCell>
        <mxCell id="5468L58HA4qk509hSg3y-61" value="Bàn giao cho tester" style="rounded=1;whiteSpace=wrap;html=1;arcSize=40;fontColor=#000000;fillColor=#ffffc0;strokeColor=#ff0000;" vertex="1" parent="1">
          <mxGeometry x="328" y="660" width="120" height="40" as="geometry" />
        </mxCell>
        <mxCell id="5468L58HA4qk509hSg3y-62" value="" style="edgeStyle=orthogonalEdgeStyle;html=1;verticalAlign=bottom;endArrow=open;endSize=8;strokeColor=#ff0000;rounded=0;fontSize=12;curved=1;" edge="1" source="5468L58HA4qk509hSg3y-61" parent="1" target="5468L58HA4qk509hSg3y-68">
          <mxGeometry relative="1" as="geometry">
            <mxPoint x="520" y="1024" as="targetPoint" />
            <Array as="points" />
          </mxGeometry>
        </mxCell>
        <mxCell id="5468L58HA4qk509hSg3y-64" value="" style="ellipse;html=1;shape=startState;fillColor=#000000;strokeColor=#ff0000;" vertex="1" parent="1">
          <mxGeometry x="275" y="140" width="30" height="30" as="geometry" />
        </mxCell>
        <mxCell id="5468L58HA4qk509hSg3y-65" value="" style="edgeStyle=orthogonalEdgeStyle;html=1;verticalAlign=bottom;endArrow=open;endSize=8;strokeColor=#ff0000;rounded=0;fontSize=12;curved=1;" edge="1" source="5468L58HA4qk509hSg3y-64" parent="1" target="5468L58HA4qk509hSg3y-41">
          <mxGeometry relative="1" as="geometry">
            <mxPoint x="355" y="155" as="targetPoint" />
          </mxGeometry>
        </mxCell>
        <mxCell id="5468L58HA4qk509hSg3y-68" value="Tester kiểm thử phần mềm" style="rhombus;whiteSpace=wrap;html=1;fontColor=#000000;fillColor=#ffffc0;strokeColor=#ff0000;" vertex="1" parent="1">
          <mxGeometry x="323" y="742" width="130" height="100" as="geometry" />
        </mxCell>
        <mxCell id="5468L58HA4qk509hSg3y-69" value="lỗi" style="edgeStyle=orthogonalEdgeStyle;html=1;align=left;verticalAlign=bottom;endArrow=open;endSize=8;strokeColor=#ff0000;rounded=0;fontSize=12;curved=1;" edge="1" source="5468L58HA4qk509hSg3y-68" parent="1" target="5468L58HA4qk509hSg3y-49">
          <mxGeometry x="-0.9457" y="-9" relative="1" as="geometry">
            <mxPoint x="660" y="1059" as="targetPoint" />
            <Array as="points">
              <mxPoint x="290" y="792" />
              <mxPoint x="290" y="360" />
            </Array>
            <mxPoint as="offset" />
          </mxGeometry>
        </mxCell>
        <mxCell id="5468L58HA4qk509hSg3y-70" value="tốt" style="edgeStyle=orthogonalEdgeStyle;html=1;align=left;verticalAlign=top;endArrow=open;endSize=8;strokeColor=#ff0000;rounded=0;fontSize=12;curved=1;" edge="1" source="5468L58HA4qk509hSg3y-68" parent="1" target="5468L58HA4qk509hSg3y-71">
          <mxGeometry x="-1" relative="1" as="geometry">
            <mxPoint x="520" y="1002" as="targetPoint" />
          </mxGeometry>
        </mxCell>
        <mxCell id="5468L58HA4qk509hSg3y-71" value="" style="ellipse;html=1;shape=endState;fillColor=#000000;strokeColor=#ff0000;" vertex="1" parent="1">
          <mxGeometry x="545" y="777" width="30" height="30" as="geometry" />
        </mxCell>
        <mxCell id="5468L58HA4qk509hSg3y-72" value="Start" style="text;html=1;align=center;verticalAlign=middle;resizable=0;points=[];autosize=1;strokeColor=none;fillColor=none;fontSize=16;" vertex="1" parent="1">
          <mxGeometry x="260" y="120" width="60" height="30" as="geometry" />
        </mxCell>
        <mxCell id="5468L58HA4qk509hSg3y-74" value="End" style="text;html=1;align=center;verticalAlign=middle;resizable=0;points=[];autosize=1;strokeColor=none;fillColor=none;fontSize=16;" vertex="1" parent="1">
          <mxGeometry x="535" y="747" width="50" height="30" as="geometry" />
        </mxCell>
        <mxCell id="5468L58HA4qk509hSg3y-77" value="no" style="edgeStyle=orthogonalEdgeStyle;html=1;align=left;verticalAlign=top;endArrow=open;endSize=8;strokeColor=#ff0000;rounded=0;fontSize=12;curved=1;" edge="1" parent="1" source="5468L58HA4qk509hSg3y-53" target="5468L58HA4qk509hSg3y-51">
          <mxGeometry x="-1" relative="1" as="geometry">
            <mxPoint x="620" y="430" as="targetPoint" />
            <mxPoint x="621" y="503" as="sourcePoint" />
            <Array as="points">
              <mxPoint x="640" y="525" />
              <mxPoint x="640" y="433" />
            </Array>
          </mxGeometry>
        </mxCell>
      </root>
    </mxGraphModel>
  </diagram>
</mxfile>
